<svg height='300px' width='300px'  fill="#fff" xmlns="http://www.w3.org/2000/svg" data-name="Layer 1" viewBox="0 0 100 100" x="0px" y="0px"><title>Artboard 330</title><path d="M6,34V94a4,4,0,0,0,4,4H30a4,4,0,0,0,4-4V90H73.47a12,12,0,0,0,10.29-5.83A71.82,71.82,0,0,0,94,47.21V46A12,12,0,0,0,82,34l-13.58-.16c5.37-13,4.58-23.56-2.21-29.63A9.16,9.16,0,0,0,60.06,2a9.73,9.73,0,0,0-9.7,9.46C50.13,17.63,47.75,26.57,38,33.89l-4,2.48V34a4,4,0,0,0-4-4H10A4,4,0,0,0,6,34Zm36.52,6.49c13.21-9.9,15.59-22.25,15.84-28.73A1.74,1.74,0,0,1,60.06,10a1.53,1.53,0,0,1,.81.17c5.51,4.91,2.46,15,.16,20.63A8.11,8.11,0,0,0,68.54,42H82a4,4,0,0,1,4,4v1.21a63.88,63.88,0,0,1-9.1,32.85A4,4,0,0,1,73.47,82H34V45.76ZM14,38H26V90H14Z"></path></svg>