<svg xmlns="http://www.w3.org/2000/svg" width="31" height="27" viewBox="0 0 31 27">
  <path id="Chat_Icon" data-name="Chat Icon" d="M21.908,23.44a17.618,17.618,0,0,1-2.532.185A15.741,15.741,0,0,1,12,21.9c.2,0,.391.035.591.035,8.06,0,14.772-4.476,16.184-10.36A6.032,6.032,0,0,1,31,16.031a5.9,5.9,0,0,1-1.96,4.219h.023V27ZM1.937,14.212A7.568,7.568,0,0,1,0,9.281C0,4.154,5.638,0,12.594,0S25.188,4.154,25.188,9.281s-5.638,9.281-12.594,9.281a16.329,16.329,0,0,1-5.427-.914l-5.23,2.6Z" fill="#fff"/>
</svg>
